<svg xmlns="http://www.w3.org/2000/svg" viewBox="0 0 102.19 32.1"><defs><style>.cls-1{fill:#94c21f;}.cls-2{fill:#999;}</style></defs><title>Ресурс 1</title><g id="Слой_2" data-name="Слой 2"><g id="Слой_1-2" data-name="Слой 1"><path class="cls-1" d="M100,14.66H93.8a8.49,8.49,0,0,0-2.55-5.28s-.14-.09-.19-.19a6.17,6.17,0,0,1,2.07-.33,6.63,6.63,0,0,1,4.24,1.46,6.34,6.34,0,0,1,2.45,3.77ZM89,10.23s.09,0,.09.09a6.34,6.34,0,0,1,2.45,3.77l.14.57H86.26l.14-.57a6.72,6.72,0,0,1,2.45-3.77s.09,0,.14-.09M87,9.14s-.14.09-.24.19a8.73,8.73,0,0,0-2.55,5.28H78l.14-.57a6.72,6.72,0,0,1,2.45-3.77,6.81,6.81,0,0,1,4.24-1.46A7.68,7.68,0,0,1,87,9.14m-9,7.64h6.17a8.49,8.49,0,0,0,2.55,5.28s.14.09.24.19a7.68,7.68,0,0,1-2.12.33,6.81,6.81,0,0,1-4.24-1.46,6.72,6.72,0,0,1-2.45-3.77Zm24.18-1a8.76,8.76,0,0,0-2.64-6.36,8.65,8.65,0,0,0-6.41-2.69,8.87,8.87,0,0,0-4.15,1A8.92,8.92,0,0,0,78.43,9.38a8.76,8.76,0,0,0-2.64,6.36,9,9,0,0,0,9,9,9.11,9.11,0,0,0,4.15-1,8.51,8.51,0,0,0,4.1,1,9.19,9.19,0,0,0,4.29-1.08,8.85,8.85,0,0,0,3-2.59l-1.79-1.18A6.94,6.94,0,0,1,91,22.29a6.88,6.88,0,0,1-2-1s-.09,0-.09-.09a6.72,6.72,0,0,1-2.45-3.77l-.14-.57h15.84a9.2,9.2,0,0,0,.09-1.08"/><rect class="cls-2" width="3.25" height="24.75"/><polygon class="cls-2" points="25.17 0 6.55 0 6.55 3.3 14.19 3.3 14.19 24.75 17.49 24.75 17.49 3.3 25.17 3.3 25.17 0"/><path class="cls-2" d="M39,20.6a6.69,6.69,0,0,1-4.9,2,6.59,6.59,0,0,1-4.85-2,6.83,6.83,0,0,1,0-9.71,6.59,6.59,0,0,1,4.85-2,6.88,6.88,0,0,1,4.9,2,6.51,6.51,0,0,1,2,4.85,6.66,6.66,0,0,1-2,4.85m2-10.09-.8-.9a8.47,8.47,0,0,0-12.59-.24,8.94,8.94,0,0,0-2.55,6.36,9,9,0,0,0,2.55,6.36,8.34,8.34,0,0,0,6.17,2.64,8.19,8.19,0,0,0,6.41-2.88L41,21v3.49h2.12V7H41Z"/><path class="cls-2" d="M59.81,20.6a6.69,6.69,0,0,1-4.9,2,6.59,6.59,0,0,1-4.85-2,6.83,6.83,0,0,1,0-9.71,6.59,6.59,0,0,1,4.85-2,6.88,6.88,0,0,1,4.9,2,6.51,6.51,0,0,1,2,4.85,6.66,6.66,0,0,1-2,4.85m2-10.09-.8-.9a8.47,8.47,0,0,0-12.59-.24,8.94,8.94,0,0,0-2.55,6.36,9,9,0,0,0,2.55,6.36A8.56,8.56,0,0,0,61,21.87l.8-.9v1.18a7.93,7.93,0,0,1-1.74,5.37,6.42,6.42,0,0,1-5.18,2.4,6.6,6.6,0,0,1-5.47-2.73l-1.84,1.18a8.93,8.93,0,0,0,3,2.59,8.71,8.71,0,0,0,4.29,1.13,8.62,8.62,0,0,0,6.36-2.69A8.78,8.78,0,0,0,64,23.1V7H61.84Z"/><path class="cls-2" d="M71.27,9l-.8,1V7H68.35V24.51h2.12V14.19a5,5,0,0,1,1.6-3.77,5.16,5.16,0,0,1,3.3-1.56V6.69A5.61,5.61,0,0,0,71.27,9"/></g></g></svg>